<svg width="150" height="86" viewBox="0 0 150 86" fill="none" xmlns="http://www.w3.org/2000/svg">
<g id="Logo Alura Include">
<path id="Vector" d="M85.7316 79.3707H86.8591C87.1611 79.3506 87.4632 79.4311 87.7249 79.6123C87.9262 79.7935 88.047 80.0553 88.0269 80.317C88.047 80.5787 87.9464 80.8606 87.7652 81.062C87.5638 81.2633 87.3021 81.3841 87.0202 81.4244V81.4445C87.4632 81.5251 87.7853 81.9277 87.7652 82.3908C87.7853 82.7532 87.6242 83.1157 87.3423 83.3573C87.0202 83.5989 86.5974 83.7398 86.1947 83.6996H84.8457L85.7316 79.3707ZM85.5705 81.5653L85.1678 83.4378H86.1746C86.4967 83.4579 86.8189 83.3573 87.0806 83.1761C87.3021 82.9949 87.4229 82.713 87.4027 82.411C87.4229 82.1693 87.3222 81.9277 87.141 81.7667C86.8994 81.6056 86.6175 81.5452 86.3356 81.5653H85.5705ZM85.6309 81.3036H86.4564C86.7786 81.3237 87.1007 81.2432 87.3826 81.062C87.6041 80.9009 87.7249 80.6392 87.7048 80.3573C87.7249 80.1559 87.6242 79.9546 87.4833 79.8136C87.2819 79.6727 87.0403 79.6123 86.7987 79.6324H85.9934L85.6309 81.3036Z" fill="white"/>
<path id="Vector_2" d="M88.4296 80.478H88.7316L88.9732 82.1089C89.0739 82.7935 89.1343 83.2364 89.1343 83.4378H89.1745C89.2551 83.2364 89.4363 82.874 89.7182 82.3505L90.745 80.478H91.047L88.9329 84.3035C88.8322 84.4847 88.7114 84.6659 88.5705 84.827C88.4698 84.9277 88.349 85.0082 88.2282 85.0686C88.0873 85.129 87.9463 85.1693 87.8054 85.1492C87.6846 85.1492 87.5437 85.129 87.4229 85.0888V84.8069C87.5437 84.8673 87.6846 84.8874 87.8255 84.8874C87.9866 84.8874 88.1276 84.827 88.2685 84.7465C88.4296 84.6055 88.5504 84.4445 88.651 84.2633C88.7718 84.0418 88.8725 83.8606 88.9531 83.7196L88.4296 80.478Z" fill="white"/>
<path id="Vector_3" d="M94.8121 82.5119H93.3826L92.7584 83.72H92.0134L94.3289 79.3911H95.1342L95.6175 83.72H94.9329L94.8121 82.5119ZM94.7718 81.8878C94.6913 81.0623 94.651 80.579 94.6309 80.3978C94.6107 80.2166 94.6107 80.0958 94.6107 79.9951C94.5101 80.2569 94.3691 80.5589 94.1879 80.9012L93.6846 81.8878H94.7718Z" fill="white"/>
<path id="Vector_4" d="M96.7853 83.6996H96.1007L97.0873 79.0889H97.792L96.7853 83.6996Z" fill="white"/>
<path id="Vector_5" d="M99.1208 80.438L98.7382 82.2501C98.698 82.4313 98.6577 82.6326 98.6376 82.8138C98.6376 83.0756 98.7584 83.2165 99.0201 83.2165C99.1812 83.2165 99.3221 83.1561 99.4429 83.0554C99.604 82.9145 99.7248 82.7534 99.8255 82.5521C99.9463 82.3105 100.027 82.0689 100.067 81.8272L100.369 80.438H101.054L100.369 83.7199H99.8255L99.8859 83.1158H99.8658C99.7248 83.3172 99.5637 83.4984 99.3624 83.6192C99.2013 83.7199 99 83.7803 98.7986 83.7803C98.5772 83.8004 98.3557 83.7199 98.1946 83.5588C98.0335 83.3776 97.9731 83.1561 97.9731 82.9145C97.9731 82.7937 97.9933 82.6729 98.0134 82.5521C98.0335 82.4313 98.0537 82.3105 98.0738 82.1897L98.4362 80.4581L99.1208 80.438Z" fill="white"/>
<path id="Vector_6" d="M103.57 80.3774C103.671 80.3774 103.792 80.3976 103.893 80.4177L103.732 81.062C103.631 81.0419 103.53 81.0217 103.43 81.0217C103.168 81.0217 102.926 81.1425 102.765 81.364C102.564 81.6258 102.423 81.9278 102.362 82.2499L102.04 83.7399H101.336L102.04 80.458H102.584L102.523 81.062H102.544C102.664 80.8607 102.846 80.6795 103.027 80.5586C103.208 80.4177 103.389 80.3774 103.57 80.3774Z" fill="white"/>
<path id="Vector_7" d="M104.859 83.7601C104.597 83.7802 104.356 83.6594 104.195 83.4581C104.013 83.2165 103.933 82.9145 103.953 82.6125C103.953 82.2299 104.013 81.8474 104.154 81.4849C104.275 81.1628 104.476 80.8809 104.718 80.6594C104.94 80.4581 105.221 80.3574 105.523 80.3574C105.705 80.3574 105.866 80.3977 106.027 80.4984C106.168 80.599 106.289 80.74 106.349 80.901H106.389L106.57 80.438H107.114L106.409 83.7198H105.846L105.906 83.1963H105.886C105.584 83.5789 105.242 83.7601 104.859 83.7601ZM105.121 83.1963C105.302 83.1762 105.483 83.0957 105.604 82.9749C105.765 82.7937 105.906 82.5923 105.987 82.3507C106.087 82.089 106.148 81.7869 106.148 81.5051C106.148 81.344 106.107 81.2031 106.007 81.0823C105.906 80.9816 105.785 80.9212 105.644 80.9212C105.463 80.9212 105.282 81.0017 105.161 81.1427C105 81.3239 104.879 81.5252 104.799 81.7668C104.718 82.0286 104.658 82.2903 104.658 82.5722C104.638 82.7333 104.698 82.8943 104.778 83.0151C104.859 83.1561 104.98 83.2165 105.121 83.1963Z" fill="white"/>
<path id="Vector_8" d="M112.248 80.5586C112.268 81.0016 112.087 81.4042 111.745 81.6861C111.342 81.968 110.839 82.1089 110.336 82.0888H110.013L109.671 83.6995H108.966L109.872 79.3707H110.859C111.221 79.3505 111.584 79.4512 111.886 79.6727C112.148 79.9143 112.268 80.2365 112.248 80.5586ZM110.154 81.4848H110.436C110.718 81.5049 111.02 81.4244 111.242 81.2432C111.443 81.0821 111.544 80.8405 111.523 80.5787C111.544 80.3975 111.483 80.2364 111.342 80.1156C111.181 80.015 111 79.9546 110.819 79.9747H110.476L110.154 81.4848Z" fill="white"/>
<path id="Vector_9" d="M113.436 83.7601C113.175 83.7802 112.933 83.6594 112.772 83.4581C112.591 83.2165 112.51 82.9145 112.53 82.6125C112.53 82.2299 112.591 81.8474 112.732 81.4849C112.852 81.1628 113.034 80.8809 113.295 80.6594C113.517 80.4581 113.799 80.3574 114.081 80.3574C114.262 80.3574 114.423 80.3977 114.584 80.4984C114.725 80.599 114.846 80.74 114.906 80.901H114.946L115.128 80.438H115.671L114.966 83.7198H114.423L114.483 83.1963H114.463C114.161 83.5789 113.819 83.7601 113.436 83.7601ZM113.698 83.1963C113.879 83.1762 114.06 83.0957 114.181 82.9749C114.342 82.7937 114.483 82.5923 114.564 82.3507C114.664 82.089 114.725 81.7869 114.725 81.5051C114.725 81.344 114.685 81.2031 114.584 81.0823C114.483 80.9816 114.362 80.9212 114.222 80.9212C114.04 80.9212 113.859 81.0017 113.758 81.1427C113.597 81.3239 113.477 81.5252 113.396 81.7668C113.315 82.0286 113.255 82.2903 113.255 82.5722C113.235 82.7333 113.295 82.8943 113.376 83.0151C113.436 83.1561 113.557 83.2165 113.698 83.1963Z" fill="white"/>
<path id="Vector_10" d="M118.127 80.3774C118.228 80.3774 118.349 80.3976 118.45 80.4177L118.289 81.062C118.188 81.0419 118.087 81.0217 117.987 81.0217C117.725 81.0217 117.483 81.1425 117.322 81.3439C117.121 81.6056 116.98 81.9076 116.919 82.2298L116.597 83.7197H115.913L116.617 80.4378H117.161L117.101 81.0419H117.121C117.242 80.8405 117.423 80.6593 117.624 80.5385C117.765 80.4177 117.946 80.3774 118.127 80.3774Z" fill="white"/>
<path id="Vector_11" d="M119.436 83.7601C119.175 83.7802 118.933 83.6594 118.772 83.4581C118.591 83.2165 118.51 82.9145 118.53 82.6125C118.53 82.2299 118.591 81.8474 118.732 81.4849C118.852 81.1628 119.034 80.8809 119.295 80.6594C119.517 80.4581 119.799 80.3574 120.101 80.3574C120.282 80.3574 120.443 80.3977 120.604 80.4984C120.745 80.599 120.866 80.74 120.926 80.901H120.966L121.148 80.438H121.691L120.987 83.7198H120.443L120.503 83.1963H120.483C120.141 83.5789 119.799 83.7601 119.436 83.7601ZM119.678 83.1963C119.859 83.1762 120.04 83.0957 120.161 82.9749C120.322 82.7937 120.463 82.5923 120.544 82.3507C120.644 82.089 120.705 81.7869 120.705 81.5051C120.705 81.344 120.664 81.2031 120.564 81.0823C120.463 80.9816 120.342 80.9212 120.201 80.9212C120.02 80.9212 119.839 81.0017 119.718 81.1427C119.557 81.3239 119.436 81.5252 119.356 81.7668C119.275 82.0286 119.215 82.2903 119.215 82.5722C119.195 82.7333 119.235 82.8943 119.336 83.0151C119.416 83.1359 119.557 83.2165 119.678 83.1963Z" fill="white"/>
<path id="Vector_12" d="M125.839 83.6995H123.544L124.45 79.3706H126.745L126.624 79.9746H125.034L124.792 81.1424H126.282L126.161 81.7464H124.671L124.389 83.0954H126L125.839 83.6995Z" fill="white"/>
<path id="Vector_13" d="M128.919 80.3776C129.362 80.3776 129.604 80.6192 129.664 81.0823H129.685C129.805 80.8608 129.987 80.6796 130.188 80.5588C130.369 80.438 130.57 80.3776 130.772 80.3776C130.993 80.3574 131.215 80.438 131.376 80.599C131.517 80.7802 131.597 81.0017 131.577 81.2433C131.577 81.4245 131.557 81.6057 131.517 81.7869L131.094 83.7198H130.409L130.832 81.7265C130.872 81.5856 130.872 81.4648 130.893 81.3239C130.893 81.0621 130.772 80.9413 130.53 80.9413C130.289 80.9614 130.047 81.1024 129.926 81.3037C129.725 81.5856 129.584 81.9279 129.523 82.2702L129.221 83.6997H128.517L128.94 81.7064C128.96 81.5856 128.98 81.4648 128.98 81.3239C128.98 81.0621 128.859 80.9212 128.638 80.9212C128.396 80.9413 128.154 81.0822 128.034 81.3037C127.832 81.6057 127.691 81.948 127.631 82.3104L127.349 83.6997H126.644L127.349 80.4178H127.893L127.832 81.0218H127.852C128.174 80.5789 128.517 80.3776 128.919 80.3776Z" fill="white"/>
<path id="Vector_14" d="M133.631 83.7602C133.289 83.7602 132.966 83.5589 132.826 83.2367H132.805C132.785 83.4179 132.765 83.5991 132.725 83.7804L132.443 85.1696H131.758L132.765 80.4381H133.309L133.248 81.0018H133.268C133.571 80.5991 133.913 80.3777 134.295 80.3777C134.557 80.3575 134.799 80.4783 134.96 80.6797C135.141 80.9213 135.222 81.2233 135.201 81.5253C135.201 81.9079 135.141 82.2904 135 82.6528C134.879 82.975 134.698 83.2569 134.436 83.4783C134.215 83.6595 133.913 83.7602 133.631 83.7602ZM134.034 80.9414C133.852 80.9616 133.671 81.0421 133.55 81.183C133.389 81.3642 133.248 81.5656 133.168 81.8072C133.067 82.0689 133.027 82.3307 133.027 82.6126C133.007 82.7736 133.067 82.9347 133.168 83.0555C133.268 83.1562 133.409 83.2166 133.55 83.2166C133.732 83.2166 133.913 83.1159 134.013 82.975C134.175 82.7938 134.275 82.5723 134.356 82.3508C134.436 82.0891 134.477 81.8273 134.477 81.5455C134.477 81.1428 134.336 80.9414 134.034 80.9414Z" fill="white"/>
<path id="Vector_15" d="M137.839 80.3774C137.94 80.3774 138.06 80.3976 138.161 80.4177L138 81.062C137.899 81.0419 137.799 81.0217 137.698 81.0217C137.436 81.0217 137.195 81.1425 137.034 81.3439C136.832 81.6056 136.691 81.9076 136.631 82.2298L136.309 83.7197H135.604L136.309 80.4378H136.852L136.792 81.0419H136.812C136.933 80.8405 137.114 80.6593 137.315 80.5385C137.476 80.4177 137.658 80.3774 137.839 80.3774Z" fill="white"/>
<path id="Vector_16" d="M139.47 83.7602C139.128 83.7804 138.805 83.6595 138.564 83.4381C138.342 83.1965 138.222 82.8542 138.242 82.5119C138.242 82.1293 138.322 81.7669 138.463 81.4246C138.604 81.1226 138.805 80.8408 139.087 80.6394C139.349 80.4582 139.651 80.3575 139.973 80.3575C140.235 80.3374 140.497 80.4179 140.718 80.579C140.899 80.72 141 80.9616 140.98 81.183C140.98 81.5253 140.799 81.8676 140.477 82.0287C140.034 82.2501 139.55 82.3508 139.067 82.3307H138.946V82.4314V82.5119C138.926 82.6931 138.987 82.8743 139.107 83.0354C139.228 83.1763 139.43 83.2367 139.611 83.2166C139.752 83.2166 139.893 83.1965 140.034 83.1562C140.215 83.0958 140.376 83.0354 140.537 82.9548V83.5186C140.376 83.5991 140.195 83.6595 140.013 83.6998C139.832 83.7401 139.651 83.7602 139.47 83.7602ZM139.913 80.9012C139.711 80.9012 139.51 81.0018 139.369 81.1629C139.188 81.3441 139.067 81.5857 139.007 81.8273H139.087C139.389 81.8475 139.691 81.7871 139.953 81.6663C140.134 81.5857 140.255 81.4246 140.275 81.2233C140.275 81.1428 140.255 81.0421 140.175 80.9817C140.114 80.9213 140.013 80.9012 139.913 80.9012Z" fill="white"/>
<path id="Vector_17" d="M143.456 82.6931C143.476 82.9951 143.336 83.2971 143.114 83.4783C142.832 83.6797 142.49 83.7803 142.148 83.7602C141.825 83.7602 141.483 83.6998 141.201 83.5589V82.9548C141.483 83.1159 141.805 83.2166 142.127 83.2166C142.289 83.2166 142.45 83.1763 142.591 83.0958C142.711 83.0354 142.772 82.8944 142.772 82.7736C142.772 82.673 142.732 82.5924 142.671 82.5119C142.55 82.3911 142.409 82.2904 142.248 82.23C142.047 82.1293 141.866 81.9884 141.725 81.8273C141.624 81.6864 141.564 81.5052 141.564 81.3441C141.544 81.0622 141.664 80.8005 141.886 80.6193C142.127 80.4381 142.429 80.3374 142.752 80.3575C143.114 80.3575 143.456 80.4381 143.778 80.5991L143.557 81.1226C143.315 80.9817 143.054 80.9011 142.772 80.9011C142.651 80.9011 142.53 80.9213 142.429 81.0018C142.349 81.0622 142.289 81.1629 142.289 81.2837C142.289 81.3642 142.329 81.4649 142.389 81.5253C142.51 81.626 142.651 81.7266 142.792 81.7871C142.953 81.8676 143.094 81.9683 143.235 82.0891C143.315 82.1696 143.396 82.2501 143.436 82.3709C143.436 82.4716 143.456 82.5924 143.456 82.6931Z" fill="white"/>
<path id="Vector_18" d="M145.047 83.7601C144.785 83.7802 144.544 83.6594 144.383 83.4581C144.201 83.2165 144.121 82.9145 144.141 82.6125C144.141 82.2299 144.201 81.8474 144.342 81.4849C144.463 81.1628 144.644 80.8809 144.906 80.6594C145.128 80.4581 145.409 80.3574 145.691 80.3574C145.873 80.3574 146.034 80.3977 146.195 80.4984C146.336 80.599 146.456 80.74 146.517 80.901H146.557L146.738 80.438H147.282L146.577 83.7198H146.034L146.094 83.1963H146.074C145.772 83.5789 145.43 83.7601 145.047 83.7601ZM145.309 83.1963C145.49 83.1762 145.671 83.0957 145.792 82.9749C145.953 82.7937 146.094 82.5923 146.175 82.3507C146.275 82.089 146.336 81.7869 146.336 81.5051C146.336 81.344 146.295 81.2031 146.195 81.0823C146.094 80.9816 145.973 80.9212 145.832 80.9212C145.651 80.9212 145.47 81.0017 145.369 81.1427C145.208 81.3239 145.087 81.5252 145.007 81.7668C144.926 82.0286 144.866 82.2903 144.866 82.5722C144.846 82.7333 144.906 82.8943 144.987 83.0151C145.047 83.1561 145.168 83.2165 145.309 83.1963Z" fill="white"/>
<path id="Vector_19" d="M149.698 82.6931C149.718 82.9951 149.577 83.2971 149.356 83.4783C149.074 83.6797 148.732 83.7803 148.389 83.7602C148.067 83.7602 147.725 83.6998 147.443 83.5589V82.9548C147.725 83.1159 148.047 83.2166 148.369 83.2166C148.53 83.2166 148.691 83.1763 148.832 83.0958C148.953 83.0354 149.013 82.8944 149.013 82.7736C149.013 82.673 148.973 82.5924 148.913 82.5119C148.792 82.3911 148.651 82.2904 148.49 82.23C148.289 82.1293 148.107 81.9884 147.966 81.8273C147.866 81.6864 147.805 81.5052 147.805 81.3441C147.785 81.0622 147.906 80.8005 148.128 80.6193C148.369 80.4381 148.671 80.3374 148.973 80.3575C149.336 80.3575 149.678 80.4381 150 80.5991L149.779 81.1226C149.537 80.9817 149.275 80.9011 148.993 80.9011C148.873 80.9011 148.752 80.9213 148.651 81.0018C148.571 81.0622 148.51 81.1629 148.51 81.2837C148.51 81.3642 148.55 81.4649 148.611 81.5253C148.732 81.626 148.873 81.7266 149.013 81.7871C149.175 81.8676 149.315 81.9683 149.456 82.0891C149.537 82.1696 149.597 82.2501 149.658 82.3709C149.678 82.4716 149.698 82.5924 149.698 82.6931Z" fill="white"/>
<path id="Vector_20" d="M77.0135 11.4378C75.5839 10.3103 73.49 9.70626 70.5504 9.70626C69.2215 9.68612 67.8725 9.80693 66.5638 10.0687C65.6175 10.3304 64.7115 10.7532 63.9262 11.3371C63.2618 11.8405 62.7383 12.5251 62.4162 13.2902C62.1141 14.0351 61.9531 14.8204 61.9732 15.6257V16.4512C61.8927 16.6727 62.0537 16.8338 62.2752 16.8338H65.8793C66.0403 16.8136 66.1611 16.6928 66.1813 16.5318C66.2417 15.7264 66.5638 14.9613 67.0873 14.3573C67.6913 13.6727 68.8188 13.3103 70.4699 13.3103C71.1746 13.2902 71.8994 13.3908 72.5638 13.6123C73.0269 13.7935 73.4699 14.0351 73.8323 14.3573C74.3759 14.9009 74.698 15.6257 74.7383 16.3908V17.4378C74.7383 17.8002 74.6578 18.1626 74.5168 18.4848C74.396 18.7667 74.2148 19.0284 73.9933 19.2297C73.8323 19.4512 73.6309 19.6123 73.3893 19.7532C73.2282 19.874 73.047 19.9747 72.8658 20.0553C72.7853 20.1358 72.4833 20.2163 71.8792 20.4378C71.2752 20.6593 70.7517 20.8808 70.0068 21.1224C69.2618 21.364 68.4967 21.5653 67.7517 21.8673C67.0068 22.1693 66.3222 22.3103 65.7182 22.5519C64.5303 22.9344 63.5437 23.7398 62.9397 24.8069C62.3155 25.8338 61.9732 27.0016 61.9732 28.1895V30.5251C62.0135 31.1895 62.1544 31.8539 62.3558 32.4781C62.5974 33.2432 63.0403 33.9076 63.6242 34.4311C64.349 35.1358 65.2148 35.6391 66.1813 35.9412C67.5705 36.364 69.0202 36.5653 70.4699 36.5452C71.9195 36.6056 73.3692 36.4042 74.7584 35.9412C75.7249 35.6391 76.6309 35.1157 77.3759 34.4311C77.9799 33.9076 78.4229 33.2432 78.6645 32.4781C78.9061 31.8539 79.0269 31.1895 79.047 30.5251V15.8069C79.047 14.0955 78.3021 12.5049 77.0135 11.4378ZM73.8524 31.7935C73.2484 32.3975 72.0403 32.7599 70.4699 32.7599C68.8994 32.7599 67.7719 32.4579 67.1678 31.8539C66.5034 31.0485 66.1813 30.0418 66.2618 28.9948C66.2618 28.4714 66.3423 27.8673 66.6443 27.4244C66.886 27.0418 67.1477 26.6794 67.4699 26.3774C67.7719 26.1559 68.2148 25.9344 68.5974 25.6928C69.0403 25.4714 69.7249 25.3103 70.2484 25.0888C70.7719 24.8472 71.3356 24.6459 71.8994 24.4848C72.5034 24.3438 73.0269 24.1022 73.5504 23.9613C73.8121 23.8808 74.0739 23.76 74.2954 23.5787C74.5772 23.4177 74.7584 23.1358 74.8188 22.8338L74.7383 28.9948C74.8188 30.0016 74.4967 31.0083 73.8524 31.7935Z" fill="white"/>
<path id="Vector_21" d="M57.7853 9.70663H60.1813C60.3423 9.72676 60.4631 9.84757 60.4833 10.0086V10.069L59.6578 13.2301C59.6578 13.3912 59.5168 13.4516 59.3558 13.4516H57.7047C56.9598 13.4315 56.2148 13.5523 55.5303 13.8341C55.047 14.0154 54.6041 14.2972 54.2618 14.6597C54 14.9415 53.7786 15.2637 53.6578 15.6261C53.5772 15.9482 53.5168 16.2704 53.4967 16.5925V36.1227C53.5168 36.3241 53.3558 36.4852 53.1745 36.5053C53.1544 36.5053 53.1544 36.5053 53.1343 36.5053H49.5302C49.349 36.4852 49.2081 36.3241 49.2282 36.1227V15.7872C49.2282 15.2637 49.3088 14.7201 49.4497 14.2167C49.5907 13.4516 49.9732 12.7469 50.4967 12.1831C51.2215 11.4382 52.0873 10.8341 53.0537 10.4516C54.5437 9.8677 56.1745 9.60596 57.7853 9.70663Z" fill="white"/>
<path id="Vector_22" d="M45.5437 29.5183V30.4244C45.5437 30.9881 45.4631 31.5318 45.3222 32.0754C45.1611 32.8405 44.7987 33.5251 44.2752 34.1089C43.5504 34.8539 42.6846 35.4579 41.7182 35.8405C40.2081 36.3841 38.5973 36.6459 36.9866 36.5855C35.3759 36.6257 33.7651 36.3841 32.2551 35.8405C31.2886 35.4781 30.4027 34.874 29.698 34.1089C29.1745 33.5452 28.8121 32.8405 28.651 32.0754C28.49 31.5519 28.49 31.0284 28.4296 30.5049V10.0083C28.4094 9.80693 28.5705 9.64586 28.7517 9.62573C28.7718 9.62573 28.7718 9.62573 28.792 9.62573H32.3155C32.5168 9.60559 32.6779 9.76667 32.698 9.96801C32.698 9.98814 32.698 9.98814 32.698 10.0083V29.0955C32.7182 29.5787 32.7584 30.0418 32.8591 30.5251C32.9799 30.9076 33.2014 31.27 33.4631 31.572C33.8054 31.9546 34.2484 32.2365 34.7316 32.3975C35.4564 32.6391 36.2215 32.76 36.9866 32.7801C37.7718 32.8002 38.5772 32.6794 39.3222 32.3975C39.8054 32.2566 40.2484 31.9949 40.5906 31.6526C40.8926 31.3908 41.094 31.0485 41.1947 30.666C41.3557 30.1828 41.4161 29.6794 41.4161 29.1559V10.0083C41.396 9.82707 41.5369 9.64586 41.7182 9.62573H45.3222C45.5235 9.60559 45.6846 9.76667 45.7047 9.96801C45.7047 9.98814 45.7047 9.98814 45.7047 10.0083L45.5437 29.5183Z" fill="white"/>
<path id="Vector_23" d="M20.9798 0.00170655H24.5033C24.7047 -0.0184277 24.8657 0.142646 24.8859 0.323854C24.8859 0.343988 24.8859 0.364123 24.8859 0.364123V36.203C24.906 36.4044 24.7449 36.5655 24.5436 36.5856C24.5235 36.5856 24.5235 36.5856 24.5033 36.5856H20.9798C20.7785 36.6057 20.6174 36.4447 20.5973 36.2433C20.5973 36.2232 20.5973 36.2232 20.5973 36.203V0.364123C20.6778 0.142646 20.8188 0.00170655 20.9798 0.00170655Z" fill="white"/>
<path id="Vector_24" d="M0.0201416 45.9277C0.0402758 45.5653 0.322155 45.2633 0.704705 45.2432H4.9933C5.35571 45.2633 5.65773 45.5452 5.67786 45.9277V69.6458C5.65773 70.0083 5.37585 70.3103 4.9933 70.3304H0.704705C0.342289 70.3103 0.0402758 70.0284 0.0201416 69.6458V45.9277Z" fill="white"/>
<path id="Vector_25" d="M11.7987 45.5452C11.8188 45.1828 12.1209 44.9009 12.4833 44.9009H13.3692L27.6645 58.6526H27.7047V45.9277C27.7047 45.5452 28.0068 45.2432 28.3893 45.2432H32.6779C33.0403 45.2633 33.3423 45.5452 33.3625 45.9277V70.0284C33.3423 70.3908 33.0403 70.6727 32.6779 70.6727H32.1141C31.9531 70.6526 31.792 70.5922 31.6511 70.4915L17.4967 56.2767H17.4564V69.6458C17.4564 70.0284 17.1544 70.3304 16.7719 70.3304H12.5235C12.1611 70.3103 11.8591 70.0284 11.839 69.6458L11.7987 45.5452Z" fill="white"/>
<path id="Vector_26" d="M50.6376 44.9009C54.2215 44.9009 56.8792 46.0083 59.2953 48.223C59.5772 48.4445 59.6175 48.8673 59.396 49.1693C59.3759 49.1895 59.3557 49.2096 59.3356 49.2297L56.5369 52.1492C56.2953 52.3908 55.8926 52.3908 55.651 52.1492C54.3222 50.9814 52.5906 50.317 50.8188 50.317C46.7718 50.317 43.792 53.6794 43.792 57.6861C43.792 61.6727 46.8121 64.9546 50.8389 64.9546C52.5906 64.9546 54.2819 64.3505 55.6309 63.2432C55.9128 63.0217 56.2953 63.0418 56.5571 63.2834L59.3557 66.2432C59.5973 66.525 59.5772 66.9479 59.3155 67.2096C56.9799 69.4646 53.8591 70.713 50.6175 70.6928C43.49 70.6928 37.7316 64.9143 37.7316 57.8069C37.7316 50.6995 43.5101 44.9009 50.6376 44.9009Z" fill="white"/>
<path id="Vector_27" d="M63.6241 45.9277C63.6241 45.5452 63.9262 45.2432 64.3087 45.2432H68.5772C68.9396 45.2633 69.2416 45.5452 69.2617 45.9277V65.0552H77.7785C78.1611 65.0552 78.4631 65.3573 78.4631 65.7398V69.6458C78.4631 70.0284 78.1611 70.3304 77.7785 70.3304H64.3087C63.9262 70.3304 63.6241 70.0284 63.6241 69.6458V45.9277Z" fill="white"/>
<path id="Vector_28" d="M81.2819 45.9277C81.302 45.5653 81.5839 45.2633 81.9664 45.2432H86.3758C86.7584 45.2432 87.0604 45.5452 87.0604 45.9277V60.4244C87.0604 62.9411 88.9127 64.9344 91.4698 64.9344C94.047 64.9344 95.9396 62.921 95.9396 60.4244V45.9277C95.9396 45.5452 96.2416 45.2432 96.6241 45.2432H101.034C101.396 45.2633 101.698 45.5452 101.718 45.9277V60.7264C101.718 66.1626 97.1275 70.6928 91.4698 70.6928C85.8523 70.6928 81.302 66.1828 81.302 60.7264L81.2819 45.9277Z" fill="white"/>
<path id="Vector_29" d="M107.477 45.9277C107.477 45.5653 107.758 45.2633 108.121 45.2432H116.859C123.765 45.2432 129.423 50.8606 129.423 57.7465C129.423 64.6928 123.785 70.3103 116.859 70.3103H108.121C107.758 70.2901 107.477 69.9881 107.477 69.6257V45.9277ZM116.497 65.0351C120.544 65.0351 123.483 61.8539 123.483 57.7667C123.483 53.7197 120.544 50.5385 116.497 50.5385H113.054V65.0351H116.497Z" fill="white"/>
<path id="Vector_30" d="M133.812 45.9277C133.812 45.5452 134.114 45.2432 134.497 45.2432H149.315C149.698 45.2432 150 45.5452 150 45.9277V49.8338C150 50.2163 149.698 50.5183 149.315 50.5183H139.389V54.968H147.564C147.926 54.9881 148.228 55.27 148.248 55.6526V59.5586C148.248 59.9411 147.946 60.2432 147.564 60.2432H139.389V65.0754H149.315C149.698 65.0754 150 65.3774 150 65.7599V69.666C150 70.0485 149.698 70.3505 149.315 70.3505H134.497C134.114 70.3505 133.812 70.0485 133.812 69.666V45.9277Z" fill="white"/>
<path id="Vector_31" d="M15.0403 11.4378C13.6107 10.3103 11.5168 9.70626 8.57718 9.70626C7.24832 9.68612 5.89933 9.80693 4.5906 10.0687C3.62416 10.2902 2.73826 10.7331 1.97315 11.3371C1.30872 11.8405 0.785235 12.5251 0.463087 13.2902C0.161074 14.0351 0.0201347 14.8204 0.0201347 15.6257V16.5318C4.60536e-07 16.7331 0.161074 16.8942 0.342282 16.9143C0.362416 16.9143 0.362416 16.9143 0.382551 16.9143H3.90604C4.06711 16.8942 4.18792 16.7734 4.20805 16.6123C4.26846 15.8069 4.5906 15.0418 5.11409 14.4378C5.71812 13.7532 6.84564 13.3908 8.49664 13.3908C9.20134 13.3103 9.92618 13.3908 10.6107 13.6123C11.0738 13.7935 11.5168 14.0351 11.8792 14.3573C12.4228 14.8808 12.745 15.6257 12.7852 16.3908V17.4378C12.7852 17.8002 12.7047 18.1626 12.5638 18.4848C12.443 18.7667 12.2617 19.0284 12.0403 19.2297C11.8792 19.4512 11.6779 19.6123 11.4362 19.7532C11.2752 19.874 11.094 19.9747 10.9128 20.0553C10.8322 20.1358 10.5302 20.2163 9.94631 20.4378C9.36242 20.6593 8.81879 20.8808 8.07383 21.1224C7.32886 21.364 6.58389 21.5653 5.81879 21.8673C5.05369 22.1693 4.36913 22.3103 3.7651 22.5519C2.59732 22.9344 1.5906 23.7398 0.986578 24.8069C0.362416 25.8338 0.0201342 27.0016 0 28.1895V30.5049C0.0402685 31.1693 0.181208 31.8338 0.382551 32.4579C0.624161 33.223 1.06711 33.8875 1.65101 34.411C2.37584 35.1157 3.24161 35.619 4.20805 35.921C5.59731 36.3438 7.04698 36.5452 8.49664 36.525C9.94631 36.5855 11.396 36.3841 12.7852 35.921C13.7517 35.619 14.6577 35.0955 15.4228 34.411C16.0268 33.8875 16.4698 33.223 16.6913 32.4579C16.9329 31.8338 17.0537 31.1693 17.0738 30.5049V15.7868C17.0738 14.0955 16.3289 12.5049 15.0403 11.4378ZM11.9597 31.7935C11.3557 32.3975 10.2282 32.76 8.57718 32.76C6.92618 32.76 5.79866 32.4579 5.19463 31.8539C4.5302 31.0485 4.20805 30.0418 4.28859 28.9949C4.28859 28.4512 4.42953 27.9076 4.65101 27.4244C4.89262 27.0418 5.15436 26.6995 5.47651 26.3774C5.77852 26.1559 6.22148 25.9344 6.60403 25.6928C7.04698 25.4714 7.73154 25.3103 8.25503 25.0888C8.77852 24.8472 9.34228 24.6459 9.90604 24.4848C10.5101 24.3438 11.0336 24.1022 11.557 23.9613C11.8188 23.8808 12.0805 23.76 12.302 23.5787C12.5839 23.4177 12.7651 23.1358 12.8255 22.8338V28.9949C12.9664 30.0217 12.6242 31.0284 11.9597 31.7935Z" fill="white"/>
</g>
</svg>
