<svg id="logo" xmlns="http://www.w3.org/2000/svg" width="78" height="45.713" viewBox="0 0 78 45.713">
          <path id="XMLID_8_"
            d="M539.981,101.2a46.926,46.926,0,0,1,22.012-4.554,47.079,47.079,0,0,0-20.732-3.886,48.952,48.952,0,0,0-10.63,1.571,33.689,33.689,0,0,0-4.13,7.251,47.088,47.088,0,0,0,5.312,4.5,48.351,48.351,0,0,1,8.169-4.881Z"
            transform="translate(-489.895 -86.284)" fill="#f6921e" />
          <path id="Caminho_1" data-name="Caminho 1"
            d="M479.991,127.457c-.236-.174-.473-.348-.7-.521l-.007-.007h0a46.654,46.654,0,0,1-4.067-3.448h0c-.049-.049-.1-.1-.153-.146h0l-.076-.076h0l-.077-.076h0l-.076-.076h0l-.076-.076h0l-.077-.076a33.691,33.691,0,0,1,4.13-7.251,46.483,46.483,0,0,0-8.009,2.92,44.443,44.443,0,0,0,3.879,4.331,30.6,30.6,0,0,0-2.35,11.638,45.777,45.777,0,0,1,7.662-7.133Zm-4.776-3.977c-.049-.049-.1-.1-.153-.146l.153.146Z"
            transform="translate(-438.068 -107.656)" fill="#fcc080" />
          <path id="Caminho_2" data-name="Caminho 2"
            d="M77.993,41.9c-.09,0-.174.007-.271.007-3.678,0-6.348-2.357-6.348-5.6v-.07c0-3.108,2.677-5.534,6.083-5.534.181,0,.362.007.528.014V26.976c-.16-.007-.32-.007-.487-.007-5.924,0-10.561,3.149-11.541,7.564-.417-3.5-2.851-5.541-7.773-5.541-.222,0-.987,0-1.189.007V32.76a7.868,7.868,0,0,1,2.892.487,2.456,2.456,0,0,1,1.342,2.28c-1.189-.139-2.538-.236-3.706-.264-4.623-.118-6.98,1.363-7.543,3.754v-2.44c0-4.206-2.572-7.495-8.016-7.495-4.985,0-7.564,2.753-7.968,6.438-.633-3.636-3.254-6.619-8.3-6.619h0c-5.124,0-8.7,3.657-8.7,8.1v.056c0,.111,0,.216.007.327-1.029-1.676-3.309-2.586-6.619-3.309-3.942-.841-4.5-1.244-4.5-2.489V31.53c0-.918,1.015-1.648,2.934-1.648a10.162,10.162,0,0,1,3.163.6V26.5a20.252,20.252,0,0,0-3.094-.313C4.227,26.19.9,28.47.9,31.912v.049c0,3.768,2.962,4.825,7.564,5.8,3.817.813,4.171,1.356,4.171,2.413v.056c0,1.112-1.238,1.787-3.3,1.787a10.465,10.465,0,0,1-6.389-2.3L0,42.674a15.116,15.116,0,0,0,9.261,3.038c4.783,0,8.176-2,8.371-5.555,1.3,3.031,4.533,4.95,8.572,4.95.153,0,.647-.021.793-.021V41.541c-.125.007-.6.028-.73.028-2.232,0-3.81-1.043-4.3-3.045H33.956v6.3H39V36.278c.09-1.557.7-3.4,2.983-3.4s2.934,1.842,3.024,3.4v8.538H50V41.4c.591,2.35,3.024,3.615,5.9,3.615a7.194,7.194,0,0,0,5.319-1.975v1.794h4.825v-6.48c1.112,4.206,5.715,7.272,11.388,7.272.2,0,.382-.007.57-.007V41.9ZM52.943.813c-1.3-.306-2.607-.6-3.956-.793L48.827,0a39.436,39.436,0,0,0-5.27,4.658,48.758,48.758,0,0,1,5.4-.487,47.448,47.448,0,0,1,18,2.816A42.788,42.788,0,0,0,52.943.813Zm8.315,38.468h0c-.431,2.273-2.781,2.614-3.316,2.642-3.8.2-3.928-2.4-2.656-3.184,1.717-1.064,5.986-.466,5.986-.466a6.25,6.25,0,0,1-.014,1.008ZM21.907,35.757a3.741,3.741,0,0,1,3.81-3.309,3.576,3.576,0,0,1,3.706,3.309Z"
            fill="#004a8c" />
        </svg>